<svg width="50" height="50" viewBox="0 0 50 50" fill="none" xmlns="http://www.w3.org/2000/svg">
<path fill-rule="evenodd" clip-rule="evenodd" d="M43.75 25C43.75 35.3553 35.3553 43.75 25 43.75C14.6447 43.75 6.25 35.3553 6.25 25C6.25 14.6447 14.6447 6.25 25 6.25C35.3553 6.25 43.75 14.6447 43.75 25ZM15.9596 34.0404C15.569 33.6499 15.569 33.0168 15.9596 32.6262L23.5858 25L15.9596 17.3738C15.569 16.9832 15.569 16.3501 15.9596 15.9596C16.3501 15.569 16.9832 15.569 17.3738 15.9596L25 23.5858L32.6262 15.9596C33.0168 15.569 33.6499 15.569 34.0404 15.9596C34.431 16.3501 34.431 16.9832 34.0404 17.3738L26.4142 25L34.0404 32.6262C34.431 33.0168 34.431 33.6499 34.0404 34.0404C33.6499 34.431 33.0168 34.431 32.6262 34.0404L25 26.4142L17.3738 34.0404C16.9832 34.431 16.3501 34.431 15.9596 34.0404Z" fill="#222222"/>
</svg>
