<svg width="50" height="50" viewBox="0 0 50 50" fill="none" xmlns="http://www.w3.org/2000/svg">
<path fill-rule="evenodd" clip-rule="evenodd" d="M26.6704 14.9963L32.5883 9.07843C33.9216 7.7451 34.5883 7.07843 35.4167 7.07843C36.2451 7.07843 36.9118 7.7451 38.2451 9.07843L40.9216 11.7549C42.2549 13.0882 42.9216 13.7549 42.9216 14.5833C42.9216 15.4118 42.2549 16.0784 40.9216 17.4118L35.0486 23.2848C31.595 21.2632 28.7166 18.4061 26.6704 14.9963ZM25.2161 16.4505L9.18973 32.477C8.76467 32.902 8.55214 33.1145 8.4124 33.3756C8.27267 33.6367 8.21372 33.9315 8.09583 34.5209L6.3971 43.0146C6.33058 43.3472 6.29732 43.5135 6.39193 43.6081C6.48654 43.7027 6.65284 43.6694 6.98545 43.6029L15.4791 41.9042C16.0686 41.7863 16.3633 41.7273 16.6244 41.5876C16.8855 41.4479 17.098 41.2354 17.5231 40.8103L33.5906 24.7427C30.1878 22.6571 27.3236 19.8132 25.2161 16.4505Z" fill="#222222"/>
</svg>
