<svg width="50" height="50" viewBox="0 0 50 50" fill="none" xmlns="http://www.w3.org/2000/svg">
<circle cx="16.6666" cy="31.25" r="6.25" fill="#222222" stroke="#222222" stroke-width="2"/>
<path d="M37.1655 12.1654C37.556 11.7749 37.556 11.1417 37.1655 10.7512C36.775 10.3607 36.1418 10.3607 35.7513 10.7512L37.1655 12.1654ZM38.8763 19.4571L39.5834 20.1642L40.9976 18.75L40.2905 18.0429L38.8763 19.4571ZM32.2917 15.625L31.5846 14.9179V14.9179L32.2917 15.625ZM34.7096 19.4571L35.4167 20.1642L36.8309 18.75L36.1238 18.0429L34.7096 19.4571ZM20.1263 26.3762C19.7357 26.7667 19.7357 27.3999 20.1263 27.7904C20.5168 28.181 21.15 28.181 21.5405 27.7904L20.1263 26.3762ZM33.6679 22.5821L34.375 23.2892L35.7893 21.875L35.0821 21.1679L33.6679 22.5821ZM35.0821 14.2488L37.1655 12.1654L35.7513 10.7512L33.6679 12.8346L35.0821 14.2488ZM33.6679 14.2488L38.8763 19.4571L40.2905 18.0429L35.0821 12.8346L33.6679 14.2488ZM32.9988 16.3321L35.0821 14.2488L33.6679 12.8346L31.5846 14.9179L32.9988 16.3321ZM31.5846 16.3321L34.7096 19.4571L36.1238 18.0429L32.9988 14.9179L31.5846 16.3321ZM21.5405 27.7904L30.9155 18.4154L29.5013 17.0012L20.1263 26.3762L21.5405 27.7904ZM30.9155 18.4154L32.9988 16.3321L31.5846 14.9179L29.5013 17.0012L30.9155 18.4154ZM29.5013 18.4154L33.6679 22.5821L35.0821 21.1679L30.9155 17.0012L29.5013 18.4154Z" fill="#222222"/>
</svg>
