<svg width="50" height="50" viewBox="0 0 50 50" fill="none" xmlns="http://www.w3.org/2000/svg">
<path d="M4.16663 25L3.38576 24.3753L2.886 25L3.38576 25.6247L4.16663 25ZM22.9166 26C23.4689 26 23.9166 25.5523 23.9166 25C23.9166 24.4477 23.4689 24 22.9166 24V26ZM11.7191 13.9586L3.38576 24.3753L4.94749 25.6247L13.2808 15.208L11.7191 13.9586ZM3.38576 25.6247L11.7191 36.0414L13.2808 34.792L4.94749 24.3753L3.38576 25.6247ZM4.16663 26H22.9166V24H4.16663V26Z" fill="#63328A"/>
<path d="M20.8334 16.9415V11.7218C20.8334 10.1035 20.8334 9.29432 21.3073 8.73483C21.7813 8.17534 22.5795 8.04231 24.1758 7.77626L38.847 5.33106C42.0901 4.79054 43.7116 4.52028 44.7725 5.41898C45.8334 6.31767 45.8334 7.96159 45.8334 11.2494V38.7506C45.8334 42.0384 45.8334 43.6823 44.7725 44.581C43.7116 45.4797 42.0901 45.2094 38.847 44.6689L24.1758 42.2237C22.5795 41.9577 21.7813 41.8246 21.3073 41.2652C20.8334 40.7057 20.8334 39.8965 20.8334 38.2782V33.4708" stroke="#63328A" stroke-width="2"/>
</svg>
