<svg width="50" height="50" viewBox="0 0 50 50" fill="none" xmlns="http://www.w3.org/2000/svg">
<path fill-rule="evenodd" clip-rule="evenodd" d="M43.5295 25C43.5295 24.662 43.3404 24.4142 42.9622 23.9187C40.6452 20.8826 33.48 12.5 24.9999 12.5C16.5199 12.5 9.35468 20.8826 7.03764 23.9187C6.65944 24.4142 6.47034 24.662 6.47034 25C6.47034 25.338 6.65944 25.5858 7.03764 26.0813C9.35468 29.1174 16.5199 37.5 24.9999 37.5C33.48 37.5 40.6452 29.1174 42.9622 26.0813L42.9623 26.0813C43.3404 25.5858 43.5295 25.338 43.5295 25ZM24.9999 31.25C28.4517 31.25 31.2499 28.4518 31.2499 25C31.2499 21.5482 28.4517 18.75 24.9999 18.75C21.5482 18.75 18.7499 21.5482 18.7499 25C18.7499 28.4518 21.5482 31.25 24.9999 31.25Z" fill="#33363F"/>
</svg>
